HIERARCHY
ROOT Hips
{
	OFFSET -14.64140 90.27770 -84.91600
	CHANNELS 6 Xposition Yposition Zposition Zrotation Xrotation Yrotation
	JOINT Spine
	{
		OFFSET 0.00000 13.20850 -1.60436
		CHANNELS 3 Zrotation Xrotation Yrotation
		JOINT Spine1
		{
			OFFSET 0.00000 8.61716 0.00000
			CHANNELS 3 Zrotation Xrotation Yrotation
			JOINT Spine2
			{
				OFFSET 0.00000 8.61717 0.00000
				CHANNELS 3 Zrotation Xrotation Yrotation
				JOINT Spine3
				{
					OFFSET 0.00000 8.61717 0.00000
					CHANNELS 3 Zrotation Xrotation Yrotation
					JOINT Neck
					{
						OFFSET 0.00000 11.07920 1.10792
						CHANNELS 3 Zrotation Xrotation Yrotation
						JOINT Neck1
						{
							OFFSET 0.00000 7.08032 0.00000
							CHANNELS 3 Zrotation Xrotation Yrotation
							JOINT Head
							{
								OFFSET 0.00000 7.08031 0.00000
								CHANNELS 3 Zrotation Xrotation Yrotation
								End site
								{
									OFFSET 0.00000 0.00000 0.00000
								}
							}
						}
					}
					JOINT RightShoulder
					{
						OFFSET -0.01000 7.91373 5.19711
						CHANNELS 3 Zrotation Xrotation Yrotation
						JOINT RightArm
						{
							OFFSET -18.41580 0.00000 0.00000
							CHANNELS 3 Zrotation Xrotation Yrotation
							JOINT RightForeArm
							{
								OFFSET -29.11090 0.00000 0.00000
								CHANNELS 3 Zrotation Xrotation Yrotation
								JOINT RightHand
								{
									OFFSET -24.65040 0.00000 0.00000
									CHANNELS 3 Zrotation Xrotation Yrotation
									JOINT RightHandThumb1
									{
										OFFSET -5.35114 -0.85590 3.97906
										CHANNELS 3 Zrotation Xrotation Yrotation
										JOINT RightHandThumb2
										{
											OFFSET -4.52789 0.00000 0.00000
											CHANNELS 3 Zrotation Xrotation Yrotation
											JOINT RightHandThumb3
											{
												OFFSET -2.46976 0.00000 0.00000
												CHANNELS 3 Zrotation Xrotation Yrotation
												End site
												{
													OFFSET 0.00000 0.00000 0.00000
												}
											}
										}
									}
									JOINT RightHandIndex1
									{
										OFFSET -14.26970 0.00000 2.88139
										CHANNELS 3 Zrotation Xrotation Yrotation
										JOINT RightHandIndex2
										{
											OFFSET -5.48836 0.00000 0.00000
											CHANNELS 3 Zrotation Xrotation Yrotation
											JOINT RightHandIndex3
											{
												OFFSET -3.01859 0.00000 0.00000
												CHANNELS 3 Zrotation Xrotation Yrotation
												End site
												{
													OFFSET 0.00000 0.00000 0.00000
												}
											}
										}
									}
									JOINT RightHandMiddle1
									{
										OFFSET -14.26970 0.00000 -0.09147
										CHANNELS 3 Zrotation Xrotation Yrotation
										JOINT RightHandMiddle2
										{
											OFFSET -6.17441 0.00000 0.00000
											CHANNELS 3 Zrotation Xrotation Yrotation
											JOINT RightHandMiddle3
											{
												OFFSET -3.56743 0.00000 0.00000
												CHANNELS 3 Zrotation Xrotation Yrotation
												End site
												{
													OFFSET 0.00000 0.00000 0.00000
												}
											}
										}
									}
									JOINT RightHandRing1
									{
										OFFSET -12.69180 0.00000 -3.06433
										CHANNELS 3 Zrotation Xrotation Yrotation
										JOINT RightHandRing2
										{
											OFFSET -5.62556 0.00000 0.00000
											CHANNELS 3 Zrotation Xrotation Yrotation
											JOINT RightHandRing3
											{
												OFFSET -3.56744 0.00000 0.00000
												CHANNELS 3 Zrotation Xrotation Yrotation
												End site
												{
													OFFSET 0.00000 0.00000 0.00000
												}
											}
										}
									}
									JOINT RightHandPinky1
									{
										OFFSET -11.11390 0.00000 -6.03719
										CHANNELS 3 Zrotation Xrotation Yrotation
										JOINT RightHandPinky2
										{
											OFFSET -4.52789 0.00000 0.00000
											CHANNELS 3 Zrotation Xrotation Yrotation
											JOINT RightHandPinky3
											{
												OFFSET -2.46976 0.00000 0.00000
												CHANNELS 3 Zrotation Xrotation Yrotation
												End site
												{
													OFFSET 0.00000 0.00000 0.00000
												}
											}
										}
									}
								}
							}
						}
					}
					JOINT LeftShoulder
					{
						OFFSET 0.01000 7.91373 5.19711
						CHANNELS 3 Zrotation Xrotation Yrotation
						JOINT LeftArm
						{
							OFFSET 18.41580 0.00000 0.00000
							CHANNELS 3 Zrotation Xrotation Yrotation
							JOINT LeftForeArm
							{
								OFFSET 29.11090 0.00000 0.00000
								CHANNELS 3 Zrotation Xrotation Yrotation
								JOINT LeftHand
								{
									OFFSET 24.65040 0.00000 0.00000
									CHANNELS 3 Zrotation Xrotation Yrotation
									JOINT LeftHandThumb1
									{
										OFFSET 5.35114 -0.85590 3.97906
										CHANNELS 3 Zrotation Xrotation Yrotation
										JOINT LeftHandThumb2
										{
											OFFSET 4.52789 0.00000 0.00000
											CHANNELS 3 Zrotation Xrotation Yrotation
											JOINT LeftHandThumb3
											{
												OFFSET 2.46977 0.00000 0.00000
												CHANNELS 3 Zrotation Xrotation Yrotation
												End site
												{
													OFFSET 0.00000 0.00000 0.00000
												}
											}
										}
									}
									JOINT LeftHandIndex1
									{
										OFFSET 14.26970 0.00000 2.88139
										CHANNELS 3 Zrotation Xrotation Yrotation
										JOINT LeftHandIndex2
										{
											OFFSET 5.48836 0.00000 0.00000
											CHANNELS 3 Zrotation Xrotation Yrotation
											JOINT LeftHandIndex3
											{
												OFFSET 3.01859 0.00000 0.00000
												CHANNELS 3 Zrotation Xrotation Yrotation
												End site
												{
													OFFSET 0.00000 0.00000 0.00000
												}
											}
										}
									}
									JOINT LeftHandMiddle1
									{
										OFFSET 14.26970 0.00000 -0.09147
										CHANNELS 3 Zrotation Xrotation Yrotation
										JOINT LeftHandMiddle2
										{
											OFFSET 6.17440 0.00000 0.00000
											CHANNELS 3 Zrotation Xrotation Yrotation
											JOINT LeftHandMiddle3
											{
												OFFSET 3.56744 0.00000 0.00000
												CHANNELS 3 Zrotation Xrotation Yrotation
												End site
												{
													OFFSET 0.00000 0.00000 0.00000
												}
											}
										}
									}
									JOINT LeftHandRing1
									{
										OFFSET 12.69180 0.00000 -3.06433
										CHANNELS 3 Zrotation Xrotation Yrotation
										JOINT LeftHandRing2
										{
											OFFSET 5.62556 0.00000 0.00000
											CHANNELS 3 Zrotation Xrotation Yrotation
											JOINT LeftHandRing3
											{
												OFFSET 3.56744 0.00000 0.00000
												CHANNELS 3 Zrotation Xrotation Yrotation
												End site
												{
													OFFSET 0.00000 0.00000 0.00000
												}
											}
										}
									}
									JOINT LeftHandPinky1
									{
										OFFSET 11.11390 0.00000 -6.03719
										CHANNELS 3 Zrotation Xrotation Yrotation
										JOINT LeftHandPinky2
										{
											OFFSET 4.52789 0.00000 0.00000
											CHANNELS 3 Zrotation Xrotation Yrotation
											JOINT LeftHandPinky3
											{
												OFFSET 2.46976 0.00000 0.00000
												CHANNELS 3 Zrotation Xrotation Yrotation
												End site
												{
													OFFSET 0.00000 0.00000 0.00000
												}
											}
										}
									}
								}
							}
						}
					}
					JOINT pCube4
					{
						OFFSET 0.00000 10.91090 1.10792
						CHANNELS 3 Zrotation Xrotation Yrotation
						End site
						{
							OFFSET 0.00000 0.00000 0.00000
						}
					}
				}
			}
		}
	}
	JOINT RightUpLeg
	{
		OFFSET -9.98441 0.00000 0.00000
		CHANNELS 3 Zrotation Xrotation Yrotation
		JOINT RightLeg
		{
			OFFSET 0.00000 -42.11790 0.00000
			CHANNELS 3 Zrotation Xrotation Yrotation
			JOINT RightFoot
			{
				OFFSET 0.00000 -45.00020 -0.00001
				CHANNELS 3 Zrotation Xrotation Yrotation
				JOINT RightForeFoot
				{
					OFFSET 0.00000 -3.74820 0.00000
					CHANNELS 3 Zrotation Xrotation Yrotation
					JOINT RightToeBase
					{
						OFFSET 0.00000 0.06325 14.43120
						CHANNELS 3 Zrotation Xrotation Yrotation
						End site
						{
							OFFSET 0.00000 0.00000 0.00000
						}
					}
				}
			}
		}
	}
	JOINT LeftUpLeg
	{
		OFFSET 9.98441 0.00000 0.00000
		CHANNELS 3 Zrotation Xrotation Yrotation
		JOINT LeftLeg
		{
			OFFSET 0.00000 -42.11800 0.00000
			CHANNELS 3 Zrotation Xrotation Yrotation
			JOINT LeftFoot
			{
				OFFSET 0.00000 -45.00070 0.00000
				CHANNELS 3 Zrotation Xrotation Yrotation
				JOINT LeftForeFoot
				{
					OFFSET 0.00000 -3.74824 0.00000
					CHANNELS 3 Zrotation Xrotation Yrotation
					JOINT LeftToeBase
					{
						OFFSET 0.00000 0.06325 14.43110
						CHANNELS 3 Zrotation Xrotation Yrotation
						End site
						{
							OFFSET 0.00000 0.00000 0.00000
						}
					}
				}
			}
		}
	}
}
MOTION
Frames: 4
Frame Time: 0.050000
-0.009657377969163427 -0.035763414846209034 0.014390028350664602 -0.042338380944089773 -0.014357767187768128 0.016236481204966357 -2.5983563458344383 0.9874451147527682 -0.8039749042464519 -1.044015109850654 3.8140857214357604 0.4015429412508669 -1.2776812120804675 -1.6714568179937983 -0.5264059398085003 0.13731747159924798 0.4561339085004189 -0.7520602115240609 0.044210896853824934 12.67665560847726 -0.37617645959685214 0.05717627318131714 -0.3259026221104803 -2.831714128871671 0.3101460929615096 -15.594322976242506 -0.27703975629011707 -4.502694636291098 1.6222992202640005 -13.98660076111291 67.91677847288048 21.819557711689686 9.690321368899971 5.404897953528398 2.1078601364007397 69.98459222082097 15.48618025296157 -0.21474727923844597 -2.2586109505384493 4.542171511508939 -0.13415084054504467 -1.590331709478115 0.047338646364769824 -0.044961222105842996 -56.22052911449673 0.007584832245969799 0.009207981313745414 -56.24583958332329 -38.737106829232154 -0.014564669125378982 -0.012255880058369594 0.04876477785313162 0.030263570567553837 -0.009857555302160452 -0.0002803798518005761 0.03784514746742842 -0.031192777394807004 -36.73905147716753 0.015773729225556348 -0.00022722136627750813 -0.010392903589089175 0.04070308721462485 -0.011831590309045648 0.049931980971746025 0.03552972417495392 0.04084688870079064 -19.77659111785298 0.00572829589703235 -0.0315568691935687 -0.001401082499297858 0.00494959004620439 -0.02232124080702957 0.017600907700301302 0.032260693182948545 -0.028657126100632042 24.07878423321574 -0.0061235193240110645 0.021466029754869317 28.878564254580404 0.045434049522338496 -0.005035081477241321 28.817858629667683 0.02510230919182273 0.0441572203247225 5.163478185229365 1.283104270337699 12.798774136188129 -67.58984142268602 30.765046040307077 -9.62865544319908 -13.422901206087873 0.5877803446599439 -69.74388624994872 -9.082528843220265 -0.19456427119497205 1.5215329584866633 -0.4964485174456594 0.11397802550054587 -8.163166448489426 0.004905444745834717 -0.010314282363094935 44.595952605999734 0.027563447351301375 -0.010346741618594899 44.559117453445566 12.491633983288654 -0.012505151540465498 -0.017484299869066366 0.026476104910603343 0.04372618492345684 -0.029421956060246543 -0.02973123584762831 -0.024621859079159127 0.021171644143726374 11.135561879641596 0.04663240750097673 0.025493681015585565 -0.009924899068220399 0.010008716796769589 -0.049082790300431764 -0.0025937099396887197 0.02746011606865978 0.015353619326699137 4.773420374768857 -0.038050901956010706 -0.03769786975279168 0.014673793419162258 0.025210377253531896 -0.045263546494897534 -0.035576715081270686 0.04227079789695744 -0.03205799829092192 -5.607425367353929 -0.017433656735384048 -0.03365578009940223 -6.681215470166125 0.02370011232264802 -0.03284876599340796 -6.719710431512582 -0.03341869847396466 0.00948210715170688 -0.03557391778940264 -0.02033608803697402 0.04559225013922877 8.004712861765174 3.529157376324656 -19.228590718260193 0.019566186316405866 10.412236183656042 0.046934541069728 -5.659208185817385 -15.616736342061508 3.2259920410314384 0.000493777162999635 -0.030452054461630802 0.002995396004932168 0.03195237866950823 4.682421201000078 0.038797574355719136 12.47426382068427 -8.256833883476354 6.866250048753933 -0.0025190250137451355 46.37660052960875 -0.005128773694499028 -4.30518561834929 -14.728714486039461 -3.8432810630486762 -0.030553400383067288 -0.040543577464364995 0.0008888893336524231 0.04885562467049865 -10.769997185253768 0.046184898088914746 
-0.009181656324491359 -0.011702738451527597 -0.04983120741092712 0.046688097943109255 -0.02328054819641001 -0.004773369931985972 -2.7567384268452284 1.0248838656647132 -0.7984063043238209 -1.0168721699609204 3.8265685409024357 0.38815217990622536 -1.2484675637563984 -1.7200652191193948 -0.6153813599433402 0.04007121140487831 0.47201338951146904 -0.7784957792136872 -0.007835099215509471 12.629371329216445 -0.2506832517354929 0.1270085719617304 -0.31734582544855944 -2.629668895796133 0.34572653398849296 -15.671244140176281 -0.1714643148181477 -4.471304062437728 1.6724196188348481 -13.96716658537606 67.67178681601875 21.80054086056198 9.347089108087973 4.022527885091139 1.902468802731487 71.23297264092801 15.786176087042316 -0.3139064382869252 -2.3997939401617856 4.524697605480392 -0.14072540989762428 -1.6150142835621129 -0.009116793043783487 0.045314738860587844 -56.25181620728054 -0.04989438206880219 0.00402407983663127 -56.23888590575645 -38.78630792007459 -0.020137339554404478 -0.022680688543992713 0.035164340243711706 0.010364629075516054 -0.009231918314103053 0.004311996982404237 0.02213087346157737 -0.041386342459387514 -36.66403308551291 -0.008805677554826212 0.04168995622769846 0.023485966091306865 0.0028503766733860274 -0.034531298368404115 0.029025441957147236 0.025943905772769213 0.005744297444385043 -19.718690773195192 -0.010270439791186348 -0.02166924405307821 -0.021393720007713918 0.034687315221376594 -0.022130519977261075 0.004894426828455984 -0.021312875456410224 0.03755103209840456 24.025755893315477 0.0217303176274361 0.03240659902986684 28.853761732274563 -0.024077142324957092 -0.02283649552030248 28.857090669214664 0.039911115819078365 -0.019097045064406404 5.250276087735051 1.3030128595422152 12.766204075036251 -67.49075514249343 30.69311993203335 -9.611032151450948 -11.837808459893115 -0.07745414106779426 -69.71338980522354 -9.125711569987619 -0.01699303293903847 1.494570161336352 -0.4577318673136708 0.07560747549821464 -8.147422508532248 0.010419019405572492 -0.03462435763500774 44.555556735323414 -0.03161794141856088 0.049997982533731354 44.54731380675137 12.443971364762028 -0.031006452385915123 0.04753966144279789 -0.02437822563096987 -0.04504267950160164 0.045706039015384635 -0.0233147144963293 -0.03724137340300447 0.04631181798762621 11.143071211197968 0.029824601648434437 -0.02400718446015894 -0.036748613016784365 0.02393657670393638 0.027218843588216166 -0.00014907311504098005 -0.009721303113031998 0.04926901108932141 4.806360846697392 -0.027124361264800646 -0.04433712357112004 0.0004462211275871782 -0.04991521738807278 -0.008619070070143554 -0.0017078386282560031 -0.0234746755407368 0.006218561450910167 -5.592426318150284 -0.03664746694857388 -0.043141135001406455 -6.7701946634211385 -0.0309856199624149 -0.04692464085989755 -6.72690056152288 0.025148817487941597 0.028269875625276823 -0.006335009240368813 0.011753294949037034 -0.04161064604996757 8.005681031523379 3.4919756142290246 -19.26552597861953 0.01166982466339638 10.352436817696496 0.013170219029954125 -5.635820298935182 -15.621400264426349 3.2160242705674538 0.04239255409714561 0.04391431842168734 -0.027241759374132132 -0.026009346935004896 4.662285847859087 -0.005448439968370724 12.433919813580507 -8.248345426306006 6.847286385378923 -0.005688942802148908 46.3703329752573 0.005787545055346711 -4.317668789525182 -14.714175335505843 -3.8525454647281263 -0.02332445192974587 0.011425251425393098 -0.018715411451376084 -0.02625307520918546 -10.744605539773877 -0.0033226624221494314 
0.038990114501921073 0.025088543724620733 -0.03845460959935712 -0.04436147401355065 0.047983352853612216 0.013097992198361944 -2.8613199604676467 0.9305789860834186 -0.7309483256482536 -1.0543506189203327 3.7862252251527257 0.36733169779016656 -1.2246381023561241 -1.727422442580407 -0.5399216940064895 -0.07242081100454655 0.4422875869000546 -0.7709236522362378 -0.010386914101781178 12.613345894590914 -0.07448644257897538 0.07088306504013425 -0.3557618603277933 -2.2476950107294664 0.3153294375944124 -15.537975277403701 -0.21031517721656612 -4.516604756777926 1.6839921341959938 -13.9354617034281 67.3752608337505 21.910636612678445 9.320947006800607 2.1594379082581963 1.5593564554289405 71.83627165446369 16.10733548630221 -0.28370136739426477 -2.5278227919027985 4.547799758578974 -0.14185539728140978 -1.5756374602908974 -0.03490284283933422 0.043631681424416466 -56.18676935344288 -0.00720681142118941 0.014799301946189714 -56.23910697673815 -38.77798354205062 -0.02271817058546848 0.014535139659399456 -0.016544780744137556 -0.020989416465039226 0.01922502023266109 0.048044943673397685 -0.005394251608799896 0.0021207593554986868 -36.66102919717133 -0.024647920619854286 0.017092899587382568 -0.04768053893599398 0.04484772042359728 0.017833705278490753 -0.03088312882928477 0.0002848631770788023 -0.03380148213180582 -19.754995223991727 0.018964305398216308 -0.037871084462953106 -0.014669107773462739 0.04638431219414459 0.022782584570067838 -0.03630936387246024 0.0233002075451718 -0.03911161986004978 24.090197087100368 0.02112382469614268 -0.024506849585567973 28.89635889635057 0.04445501800421752 -0.023862860312054614 28.889301402666298 -0.016146002929990175 0.04089499828264628 5.278014315198685 1.316443857781567 12.811813035084397 -67.44565501384021 30.433519412160116 -9.463678701806957 -9.771146768173695 -0.9342810470477501 -68.52716592039299 -9.256527104268518 0.2764123893895458 1.4286392472939005 -0.4269944692930432 0.10995606902332931 -8.102881303021334 0.028075874181031052 0.01848470453927329 44.563180900990744 -0.021348476369444012 -0.03600929486909343 44.61417462325155 12.464050871652175 0.02776261255555604 0.04675885105315401 -0.015725635972001783 0.004767346802383522 -0.018747191322661675 -0.004203165996701526 -0.03803568228859723 0.02427529576585403 11.062191344725111 0.024806050028286494 -0.0238014819181865 -0.04224471899596124 -0.01695481508806233 -0.03254811791945077 -0.004512372921769423 -0.015423878787536557 0.0075422119288935125 4.778897858744404 -0.004846014118961293 -0.015662918981546328 0.010577510178841976 -0.026922356264193432 -0.011166004047648044 0.001034252282245408 -0.02146284943820369 0.009989704011730707 -5.643456201128093 -0.04977595564666698 0.031509964893844826 -6.744850479733834 -0.042222219989759106 -0.04025298105066753 -6.721371124241409 -0.004198192161066835 -0.007168150084177904 -0.017411835896892942 -0.013467228286589444 -0.037564102195207824 8.053529613584681 3.4990010651217243 -19.240652601208485 0.03278470888550395 10.432190841222926 0.04505262933585526 -5.579714010817432 -15.658058224561936 3.2387912242500394 0.03262195095672912 -0.022625109497634483 -0.01777466467646548 0.02068742121694811 4.664132851257159 -0.025538598673511628 12.478615579207727 -8.23075371855354 6.877364403336793 0.037757157598247514 46.38039780568749 0.021846915403064923 -4.2942651452385245 -14.739590893922276 -3.8829090168260656 -0.0040134804133267424 0.014623892536789059 -0.03643231291317546 0.017084377611252543 -10.697993927029767 0.007829044408454788 
0.024110920396718014 -0.010640577309526014 -0.02242493669933915 0.04368223861853821 -0.0007694595767091999 0.004072388246427995 -3.1156629972935024 0.9210721398131207 -0.722844763966226 -1.0483683669628745 3.7780208675343254 0.4038496556622349 -1.2594649326170282 -1.7776507224086076 -0.4396627158707474 -0.12286078684934709 0.4380108799067847 -0.7160793401595931 -0.06641680250664411 12.62357604203681 0.15046321085019432 0.1660588674931847 -0.26323099165973596 -1.9520547180077845 0.25597335428372653 -15.479379310202638 -0.17804986345490315 -4.643567133126503 1.7362468706694285 -13.839837394238646 67.03694697149852 22.212663793502866 9.498089368453131 0.6298852879153368 1.2998623843320594 71.75851501412102 16.701089775031843 -0.33751099246263133 -2.7437571045357125 4.572209572494664 -0.09036514810154764 -1.6394210341928999 0.04759294300833436 0.03892251907167026 -56.25167305916414 -0.01189522160564304 0.017660582785780907 -56.2033827415559 -38.7902691086542 0.03017428062116552 -0.009310396715173593 0.0043837534988137115 -0.014956887872201214 -0.027070037069158753 0.011063980020223003 0.027291234150634888 0.005986377527993724 -36.65067932088284 0.03650554150554188 0.00416202035804984 -0.025731815576688813 0.040808386257753 0.007265753867361906 0.003405728337215878 -0.04676867371966464 -0.026403589325074105 -19.749888711672863 0.014976745928036706 0.024000390162030528 0.020547616218010233 0.0061564235383942565 0.020771404619155675 0.044828998343163465 0.0035239751677133948 0.01475133763019484 24.023918139032272 -0.015673600488380037 -0.03646180464954613 28.86505584779452 -0.026014347259060506 0.04616190098601174 28.842771296495947 0.035553836135634 0.028390529824856063 5.311775610627578 1.2944441566525353 12.909114314457389 -67.43556860552003 30.090762488104417 -9.141557224706775 -7.860051835840245 -1.8876269423192484 -66.70930450452417 -9.532141345397118 0.5371571355343774 1.3982601394286172 -0.5149241410057135 0.07337734329468364 -8.141035087872561 -0.0415603838512368 -0.02717776904315944 44.5340405800947 0.041213416860778944 -0.0029226870022992994 44.58079197725123 12.483433092626303 0.03427954751524594 -0.02020884064542245 0.011194723648411953 0.01896832794545741 -0.02786418664018171 -0.04022364770312506 0.030748961300653663 -0.014836041860277895 11.106262093683501 -0.021327089939427182 0.03886407629743427 0.027482338238777167 -0.02099217231922142 0.029899270199655846 0.014201510053743361 -0.04376714383201417 -0.021346738241614455 4.790497046002213 0.0015653194852587558 -0.00770373304003203 -0.029522953619860695 0.019752929313582555 -0.024223736175109454 0.0020471899499329487 -0.02523776724790313 0.01260309433101375 -5.561284394073653 0.04697219508334345 0.045088632200192554 -6.7367946083537555 0.04114683541863433 0.017572500602574433 -6.67949164986759 0.02241575154791273 -0.003930877042456059 -0.03813004424077301 -0.01942463178134981 -0.026117309151543287 8.093677675759647 3.5099137389909023 -19.181904031030133 -0.004760718736036276 10.40538960522248 -0.026842712667569203 -5.63929859355304 -15.694132281497872 3.2404782116019653 0.031140725726543594 0.03061499631458832 -0.04699330812515594 0.006123176804379841 4.727968467627216 -0.004199274515332574 12.499278901245315 -8.2182395261465 6.884770039793792 0.010942479923958639 46.366719519776865 0.011487922243814156 -4.327867340404357 -14.74662138126218 -3.856443998786431 -0.023356889834408725 -0.04209334126216902 0.047358961474848214 -0.02448518058271498 -10.729308525003246 0.02689516739378528 
